<?xml version="1.0" standalone="no"?>
<!DOCTYPE svg PUBLIC "-//W3C//DTD SVG 20010904//EN"
 "http://www.w3.org/TR/2001/REC-SVG-20010904/DTD/svg10.dtd">
<svg version="1.0" xmlns="http://www.w3.org/2000/svg"
 width="512.000000pt" height="512.000000pt" viewBox="0 0 512.000000 512.000000"
 preserveAspectRatio="xMidYMid meet">

<g transform="translate(0.000000,512.000000) scale(0.100000,-0.100000)"
fill="#000000" stroke="none">
<path d="M2012 5100 c-109 -29 -187 -74 -272 -160 -87 -86 -131 -163 -160
-276 -18 -69 -20 -111 -20 -411 l0 -333 199 0 200 0 3 333 c3 330 3 332 27
370 13 21 42 50 64 65 l41 27 1245 0 1246 0 38 -24 c21 -13 50 -42 65 -64 l27
-41 0 -1226 0 -1226 -27 -41 c-15 -22 -44 -51 -65 -64 -38 -24 -42 -24 -350
-27 l-313 -3 0 -200 0 -199 313 0 c280 0 322 2 391 20 113 29 190 73 276 160
87 86 131 163 160 276 19 75 20 115 20 1304 0 1189 -1 1229 -20 1304 -29 113
-73 190 -160 276 -86 87 -163 131 -276 160 -75 19 -114 20 -1328 19 -1199 0
-1254 -1 -1324 -19z"/>
<path d="M452 3500 c-109 -29 -187 -74 -272 -160 -87 -86 -131 -163 -160 -276
-19 -75 -20 -115 -20 -1304 0 -1189 1 -1229 20 -1304 29 -113 73 -190 160
-276 86 -87 163 -131 276 -160 75 -19 115 -20 1324 -20 1209 0 1249 1 1324 20
113 29 190 73 276 160 87 86 131 163 160 276 19 75 20 115 20 1304 0 1189 -1
1229 -20 1304 -29 113 -73 190 -160 276 -86 87 -163 131 -276 160 -75 19 -114
20 -1328 19 -1199 0 -1254 -1 -1324 -19z m2611 -409 c21 -13 50 -42 65 -64
l27 -41 0 -1226 0 -1226 -27 -41 c-15 -22 -44 -51 -65 -64 l-38 -24 -1246 0
-1245 0 -41 27 c-22 15 -51 44 -64 65 l-24 38 -3 1203 c-1 831 1 1216 8 1243
13 48 76 115 122 128 20 6 505 9 1263 8 l1230 -2 38 -24z"/>
</g>
</svg>
