<svg height="682.667" viewBox="0 0 512 512" width="682.667" xmlns="http://www.w3.org/2000/svg"><path d="m201.2 2c-10.9 2.9-18.7 7.4-27.2 16-8.7 8.6-13.1 16.3-16 27.6-1.8 6.9-2 11.1-2 41.1v33.3h39.9l.3-33.3c.3-33 .3-33.2 2.7-37 1.3-2.1 4.2-5 6.4-6.5l4.1-2.7h249.1l3.8 2.4c2.1 1.3 5 4.2 6.5 6.4l2.7 4.1v245.2l-2.7 4.1c-1.5 2.2-4.4 5.1-6.5 6.4-3.8 2.4-4.2 2.4-35 2.7l-31.3.3v39.9h31.3c28 0 32.2-.2 39.1-2 11.3-2.9 19-7.3 27.6-16 8.7-8.6 13.1-16.3 16-27.6 1.9-7.5 2-11.5 2-130.4s-.1-122.9-2-130.4c-2.9-11.3-7.3-19-16-27.6-8.6-8.7-16.3-13.1-27.6-16-7.5-1.9-11.4-2-132.8-1.9-119.9 0-125.4.1-132.4 1.9z"/><path d="m45.2 162c-10.9 2.9-18.7 7.4-27.2 16-8.7 8.6-13.1 16.3-16 27.6-1.9 7.5-2 11.5-2 130.4s.1 122.9 2 130.4c2.9 11.3 7.3 19 16 27.6 8.6 8.7 16.3 13.1 27.6 16 7.5 1.9 11.5 2 132.4 2s124.9-.1 132.4-2c11.3-2.9 19-7.3 27.6-16 8.7-8.6 13.1-16.3 16-27.6 1.9-7.5 2-11.5 2-130.4s-.1-122.9-2-130.4c-2.9-11.3-7.3-19-16-27.6-8.6-8.7-16.3-13.1-27.6-16-7.5-1.9-11.4-2-132.8-1.9-119.9 0-125.4.1-132.4 1.9zm261.1 40.9c2.1 1.3 5 4.2 6.5 6.4l2.7 4.1v245.2l-2.7 4.1c-1.5 2.2-4.4 5.1-6.5 6.4l-3.8 2.4h-249.1l-4.1-2.7c-2.2-1.5-5.1-4.4-6.4-6.5l-2.4-3.8-.3-120.3c-.1-83.1.1-121.6.8-124.3 1.3-4.8 7.6-11.5 12.2-12.8 2-.6 50.5-.9 126.3-.8l123 .2z"/></svg>