<svg height="512pt" preserveAspectRatio="xMidYMid meet" viewBox="0 0 512 512" width="512pt" xmlns="http://www.w3.org/2000/svg"><path d="m717 4355c-145-40-270-142-339-277-60-117-59-83-56-1338l3-1145 27-69c51-131 143-236 257-292 125-61 83-58 853-62l708-3-105-209-105-210h-235c-253 0-287-5-319-51-21-30-21-88 0-118 37-53 1-51 1154-51s1117-2 1154 51c21 30 21 88 0 118-32 46-66 51-319 51h-235l-105 210-105 209 708 3 707 3 65 23c166 60 275 167 340 332l25 65 3 1147c3 1275 6 1216-64 1349-67 126-194 227-334 264-78 21-3608 21-3683 0zm3681-224c68-31 144-113 169-183 17-50 18-113 18-1183v-1130l-27-57c-35-75-104-141-174-167-55-21-57-21-1837-19l-1782 3-49 24c-66 33-122 91-155 160l-26 56-3 1100c-3 1125-2 1178 35 1249 21 41 92 115 127 133 82 43 29 42 1881 40l1770-2zm-1583-3171 105-210h-360-360l105 210 105 210h150 150z" transform="matrix(.1 0 0 -.1 0 512)"/></svg>