<svg height="512pt" preserveAspectRatio="xMidYMid meet" viewBox="0 0 512 512" width="512pt" xmlns="http://www.w3.org/2000/svg"><g transform="matrix(.1 0 0 -.1 0 512)"><path d="m2012 5100c-109-29-187-74-272-160-87-86-131-163-160-276-19-73-20-113-20-771v-693h-133c-229 0-354-46-487-180-150-150-208-341-165-544 17-81 62-181 107-239 46-61 1211-1228 1289-1292 195-161 437-187 669-74 84 41 89 46 703 658 340 339 643 646 672 682 127 154 173 348 125 533-29 113-73 190-160 276-133 134-258 180-487 180h-133v693c0 658-1 698-20 771-29 113-73 190-160 276-86 87-163 131-276 160-72 19-111 20-548 19-431 0-477-2-544-19zm1051-409c21-13 50-42 65-64l27-41 5-825 5-826 24-38c13-21 42-50 64-65l40-27 267-5 267-5 40-27c52-34 82-84 90-146 11-100 33-74-646-756-426-427-639-634-666-647-51-24-119-24-170 0-27 13-240 220-666 647-507 509-629 636-639 668-28 86 10 190 87 237 37 23 46 24 304 29l266 5 40 27c22 15 51 44 64 65l24 38 5 825 5 825 23 37c26 41 68 75 110 88 15 5 230 8 477 7l450-2z"/><path d="m492 1189c-45-13-108-80-121-126-6-22-11-142-11-284 0-212 3-256 20-323 29-113 73-190 160-276 86-87 163-131 276-160 75-20 117-20 1744-20s1669 0 1744 20c113 29 190 73 277 160s138 178 164 293c13 60 16 121 13 334l-3 260-27 40c-41 62-90 88-168 88s-127-26-168-88l-27-40-5-267-5-267-27-40c-15-22-44-51-65-64l-38-24h-1665-1665l-38 24c-21 13-50 42-65 64l-27 40-5 266c-5 258-6 267-29 304-47 76-151 113-239 86z"/></g></svg>