<svg height="512pt" preserveAspectRatio="xMidYMid meet" viewBox="0 0 512 512" width="512pt" xmlns="http://www.w3.org/2000/svg"><path d="m1321 5104c-169-45-301-180-346-351-23-87-23-4299 0-4386 45-173 178-307 350-352 52-13 211-15 1235-15s1183 2 1235 15c172 45 305 179 350 352 23 87 23 4299 0 4386-45 173-178 307-350 352-86 22-2391 22-2474-1zm449-448c0-132 2-146 23-176 12-18 35-43 50-54 28-21 34-21 717-21s689 0 717 21c15 11 38 36 51 54 20 30 22 44 22 177v144l194-3c213-3 221-5 270-72l21-27v-2139-2139l-21-27c-11-15-33-37-48-48-27-21-31-21-1206-21s-1179 0-1206 21c-15 11-37 33-48 48l-21 27-3 2112c-1 1162 0 2126 3 2144 7 40 49 91 90 109 21 9 83 13 213 14h182zm1260 104v-40h-470-470v40 40h470 470z" transform="matrix(.1 0 0 -.1 0 512)"/></svg>