<svg version="1.2" xmlns="http://www.w3.org/2000/svg" viewBox="0 0 630 74" width="630" height="74">
	<title>sonarwave-svg</title>
	<style>
		.s0 { fill: #ffffff;stroke: #ffffff;stroke-width: 0 } 
	</style>
	<g id="logo-group">
		<g id="logo-center">
			<g id="slogan">
			</g>
			<g id="title">
				<path id="path124784" class="s0" d="m0.4 73.6v-20h29.9c1.7 0 3.3-1.4 3.3-3.3 0-1.8-1.6-3.3-3.3-3.3h-5.4c-12.9 0-23.3-10.4-23.3-23.3 0-12.9 10.4-23.5 23.3-23.5h26.6v20h-26.6c-1.9 0-3.3 1.6-3.3 3.5 0 1.8 1.4 3.3 3.3 3.3h5.4c12.8 0 23.3 10.4 23.3 23.3 0 12.9-10.5 23.3-23.3 23.3z"/>
				<path id="path124786" fill-rule="evenodd" class="s0" d="m77.9 71c-4.4-1.9-8.2-4.5-11.6-7.8-3.3-3.5-5.9-7.3-7.8-11.6-1.8-4.5-2.8-9.3-2.8-14.2 0-4.9 1-9.6 2.8-14.1 1.9-4.3 4.5-8.2 7.8-11.6 3.4-3.3 7.2-5.9 11.6-7.8 4.4-1.9 9.3-2.8 14.1-2.8 4.8 0 9.7 0.9 14.2 2.8 4.3 1.9 8.1 4.5 11.5 7.8 3.4 3.3 5.9 7.3 7.8 11.6 1.9 4.5 2.8 9.2 2.8 14.1 0 4.9-0.9 9.7-2.8 14.2-1.9 4.3-4.4 8.1-7.8 11.6-3.3 3.3-7.2 5.9-11.5 7.8-4.5 1.7-9.4 2.8-14.2 2.8-4.8 0-9.7-1.1-14.1-2.8zm-3.1-33.6c0 9.5 7.8 17.3 17.2 17.3 9.4 0 17.2-7.8 17.2-17.3 0-9.4-7.8-17.2-17.2-17.2-9.4 0-17.2 7.8-17.2 17.2z"/>
				<path id="path124788" class="s0" d="m199.4 35.3v37.6h-19.1v-37.6c0-7.2-5.9-13-13-13-6.6 0-12 4.8-12.9 11.1v39.5h-19.1v-37.6h-0.1c0-1 0-1.9 0.1-3v-31.2h19.1v4.7c4-1.7 8.3-2.6 12.9-2.6 8.5 0 16.6 3.3 22.7 9.3 6 6.1 9.4 14.1 9.4 22.8z"/>
				<path id="path124790" fill-rule="evenodd" class="s0" d="m276.1 1.1v71.8h-19.1l0.2-3c-5.1 2.6-10.7 4-16.5 4-4.8 0-9.7-1-14.1-2.8-4.4-1.9-8.2-4.5-11.6-7.8-3.3-3.4-5.9-7.2-7.8-11.6-1.8-4.4-2.8-9.3-2.8-14.1 0-4.9 1-9.7 2.8-14.2 1.9-4.3 4.5-8.3 7.8-11.6 3.4-3.3 7.2-5.8 11.6-7.7 4.4-2 9.3-2.8 14.1-2.8 5.8 0 11.4 1.4 16.5 3.9l-0.2-4.1zm-20.5 45.1c1.5-2.6 2.3-5.6 2.3-8.6 0-2.6-0.5-5-1.6-7.3-1.3-2.9-3.5-5.5-6.3-7.1-2.7-1.9-6-2.8-9.3-2.8-9.4 0-17.2 7.7-17.2 17.2 0 9.4 7.8 17.2 17.2 17.2 3.1 0 6.1-0.9 8.7-2.4 2.6-1.4 4.7-3.6 6.2-6.2z"/>
				<path id="path124792" class="s0" d="m285.5 72.9v-31.4c0-5.6 1-10.9 3.2-16 2.2-5 5.1-9.5 8.9-13.2 3.8-3.8 8.3-6.8 13.1-8.9 5.1-2.1 10.6-3.3 16.2-3.3v19.1c-12.3 0-22.3 10.1-22.3 22.3v31.4z"/>
				<path id="path124794" class="s0" d="m373.9 37.7l-11.1 35.2h-15.8l-24.6-71h20.1l12.4 36.9 11.4-36.9h15.4l11.6 36.9 12.2-36.9h20.1l-24.4 71h-16.2z"/>
				<path id="path124796" fill-rule="evenodd" class="s0" d="m491.5 1.1v71.8h-19.2l0.2-3c-5.1 2.6-10.7 4-16.5 4-4.8 0-9.7-1-14.1-2.8-4.4-1.9-8.2-4.5-11.6-7.8-3.3-3.4-5.9-7.2-7.8-11.6-1.8-4.4-2.8-9.3-2.8-14.1 0-4.9 1-9.7 2.8-14.2 1.9-4.3 4.5-8.3 7.8-11.6 3.4-3.3 7.2-5.8 11.6-7.7 4.4-2 9.3-2.8 14.1-2.8 5.8 0 11.4 1.4 16.5 3.9l-0.2-4.1zm-20.5 45.1c1.5-2.6 2.3-5.6 2.3-8.6 0-2.6-0.5-5-1.6-7.3-1.3-2.9-3.5-5.5-6.3-7.1-2.7-1.9-6-2.8-9.3-2.8-9.4 0-17.2 7.7-17.2 17.2 0 9.4 7.8 17.2 17.2 17.2 3.1 0 6.1-0.9 8.7-2.4 2.6-1.4 4.7-3.6 6.2-6.2z"/>
				<path id="path124798" class="s0" d="m491.9 1.9h20.9l15.9 41.3 16.1-41.3h20.8l-29 71h-15.9z"/>
				<path id="path124800" fill-rule="evenodd" class="s0" d="m568.3 62.8c-6.8-6.7-10.5-15.8-10.5-25.4 0-9.5 3.7-18.6 10.5-25.3 6.8-6.8 15.8-10.6 25.4-10.6 9.6 0 18.7 3.8 25.4 10.6 6.8 6.7 10.5 15.8 10.5 25.3v9.3h-50.6c3 4.9 8.5 8.2 14.7 8.2 4.9 0 9.4-1.9 12.7-5.5l13.5 12.8c-3.3 3.4-7.3 6.2-11.8 8.1-4.5 2.1-9.4 3.1-14.4 3.1-9.6 0-18.6-3.8-25.4-10.6zm40.2-34.5c-3.2-5-8.6-8.3-14.8-8.3-6.2 0-11.7 3.3-14.7 8.3z"/>
			</g>
		</g>
	</g>
</svg>