<svg height="512pt" preserveAspectRatio="xMidYMid meet" viewBox="0 0 512 512" width="512pt" xmlns="http://www.w3.org/2000/svg"><g transform="matrix(.1 0 0 -.1 0 512)"><path d="m320 4947c-49-16-133-102-148-153-17-59-17-1369 0-1428 16-55 99-138 154-154 30-9 181-12 554-12s524 3 554 12c55 16 138 99 154 154 17 59 17 1369 0 1428-16 55-99 138-154 154s-1062 15-1114-1zm1095-172 25-24v-671-671l-25-24-24-25h-511-511l-24 25-25 24v671 671l25 24 24 25h511 511z"/><path d="m800 3600v-80h80 80v80 80h-80-80z"/><path d="m3065 4935-25-24v-456-455h-50c-41 0-56-5-75-25-14-13-25-34-25-47 1-13 18-102 39-198 31-139 43-178 61-192 21-17 72-18 930-18s909 1 930 18c18 14 30 53 61 192 21 96 38 185 39 198 0 13-11 34-25 47-19 20-34 25-75 25h-50v455 456l-25 24-24 25h-831-831zm1575-535v-400h-295-296l-24-25c-14-13-25-31-25-40 0-12-15-15-80-15s-80 3-80 15c0 9-11 27-25 40l-24 25h-296-295v400 400h720 720zm-960-575c0-9 11-27 25-40 24-25 26-25 215-25s191 0 215 25c14 13 25 31 25 40 0 13 37 15 306 15 286 0 305-1 300-17-3-10-10-46-17-80l-12-63h-817-817l-12 58c-6 31-14 67-17 80l-6 22h306c269 0 306-2 306-15z"/><path d="m1760 4080v-80h360 360v-200-200h80 80v255 256l-25 24-24 25h-416-415z"/><path d="m2363 3425c-26-18-39-62-49-162-3-40-11-73-16-73s-44 27-86 60c-116 90-117 89-274-68-159-159-159-158-63-279 35-45 61-84 57-86-4-3-38-8-77-11-99-10-142-23-160-49-22-32-22-362 0-394 18-26 61-39 160-49 39-3 73-8 77-11 4-2-22-41-57-86-96-121-96-120 63-279 157-157 158-158 274-68 42 33 81 60 86 60s13-33 16-72c10-101 23-145 49-163 32-22 362-22 394 0 26 18 39 61 49 160 3 39 8 73 11 77 2 4 41-22 86-57 121-96 120-96 279 63s159 158 63 279c-35 45-61 84-57 86 4 3 39 8 77 11 99 10 142 23 160 49 22 32 22 362 0 394-18 26-61 39-160 49-38 3-73 8-77 11-4 2 22 41 57 86 96 121 96 120-63 279s-158 159-279 63c-45-35-84-61-86-57-3 4-8 39-11 77-10 99-23 142-49 160-32 22-362 22-394 0zm281-177c3-18 10-67 16-107 6-41 16-81 23-90 19-23 118-63 142-57 12 3 57 33 100 66s80 60 84 60c8 0 111-103 111-111 0-3-27-41-60-84s-63-88-66-100c-6-24 34-123 58-142 8-7 50-17 94-23 147-20 134-10 134-100s13-80-134-100c-44-6-86-16-94-23-24-19-64-118-58-142 3-12 33-57 66-100s60-80 60-84c0-8-103-111-111-111-3 0-41 27-84 60s-88 63-100 66c-24 6-123-34-142-57-7-9-17-49-23-90-6-40-13-89-16-106l-5-33h-79-79l-5 33c-3 17-10 66-16 106-6 41-16 81-23 90-19 23-118 63-142 57-12-3-57-33-100-66s-80-60-84-60c-8 0-111 103-111 111 0 3 27 41 60 84s63 88 66 100c6 24-34 123-57 142-9 7-49 17-90 23-40 6-89 13-106 16l-33 5v79 79l33 5c17 3 66 10 106 16 41 6 81 16 90 23 23 19 63 118 57 142-3 12-33 57-66 100s-60 80-60 84c0 8 103 111 111 111 3 0 41-27 84-60s88-63 100-66c24-6 123 34 142 57 7 9 17 49 23 90 6 40 13 89 16 107l5 32h79 79z"/><path d="m2466 2950c-63-16-153-70-197-117-22-24-55-74-72-111-29-61-32-76-32-163 0-90 2-99 37-171 45-91 103-147 196-191 61-29 76-32 162-32s101 3 162 32c93 44 151 100 196 191 35 72 37 81 37 172s-2 100-37 172c-68 136-188 217-336 224-42 2-94-1-116-6zm168-162c55-16 138-99 154-154 28-94 8-169-63-239-101-102-229-102-330 0-102 101-102 229 0 330 70 71 145 90 239 63z"/><path d="m3840 3040v-320h-120-120v-80-80h175c173 0 176 0 200 25l25 24v376 375h-80-80z"/><path d="m905 2615-25-24v-336-335h80 80v280 280h240 240v80 80h-295-296z"/><path d="m4000 1907c-49-16-133-102-148-153-17-59-17-1369 0-1428 16-55 99-138 154-154 58-17 730-17 788 0 55 16 138 99 154 154 9 31 12 215 12 714s-3 683-12 714c-16 55-99 138-154 154-54 16-743 15-794-1zm80-163c0-77 88-189 166-212 23-7 92-12 154-12s131 5 154 12c78 23 166 135 166 212 0 24 27 20 55-9l25-24v-671-671l-25-24-24-25h-351-351l-24 25-25 24v671 671l25 24c28 29 55 33 55 9zm480 1c0-9-11-27-25-40-23-24-31-25-135-25s-112 1-135 25c-14 13-25 31-25 40 0 13 22 15 160 15s160-2 160-15z"/><path d="m320 1747c-49-16-133-102-148-153-17-58-17-890 0-948 16-55 99-138 154-154 25-7 106-12 208-12 91 0 166-2 166-5s-11-53-25-111c-31-131-31-149 0-179l24-25h341 341l24 25c31 30 31 48 0 179-14 58-25 108-25 111s75 5 166 5c102 0 183 5 208 12 55 16 138 99 154 154 17 58 17 890 0 948-16 55-99 138-154 154-56 16-1382 15-1434-1zm1415-172 25-24v-296-295h-720-720v295 296l25 24 24 25h671 671zm25-830c0-46-4-60-25-80l-24-25h-671-671l-24 25c-21 20-25 34-25 80v55h720 720zm-528-340c9-38 18-73 18-77 0-5-94-8-210-8s-210 3-210 6c0 7 29 123 35 142 4 10 44 12 177 10l172-3z"/><path d="m2480 1185v-336l25-24 24-25h576 575v80 80h-520-520v280 280h-80-80z"/></g></svg>