<svg height="512pt" preserveAspectRatio="xMidYMid meet" viewBox="0 0 512 512" width="512pt" xmlns="http://www.w3.org/2000/svg"><g transform="matrix(.1 0 0 -.1 0 512)"><path d="m2431 5105c-89-20-183-67-260-130-36-29-343-332-682-672-562-565-618-624-652-690-129-250-90-522 102-714 76-77 134-113 241-152 43-16 89-21 218-25l162-4v-693c0-656 1-696 20-769 29-113 73-190 160-276 86-87 163-131 276-160 71-19 112-20 544-20s473 1 544 20c113 29 190 73 276 160 87 86 131 163 160 276 19 73 20 113 20 769v693l163 5c107 3 178 10 210 21 253 83 426 319 427 582 0 81-31 199-76 287-35 66-90 125-698 733-660 661-661 662-746 703-139 67-271 85-409 56zm214-404c57-27 1278-1252 1300-1303 8-21 15-55 15-76 0-56-45-138-93-170l-40-27-266-5c-258-5-267-6-304-29-21-13-50-42-65-64l-27-41-5-825-5-826-24-38c-13-21-42-50-64-65l-41-27h-466-466l-41 27c-22 15-51 44-64 65l-24 38-5 826-5 825-27 41c-15 22-44 51-65 64-37 23-46 24-304 29l-266 5-40 27c-48 32-93 114-93 170 0 21 7 55 15 76 22 51 1243 1276 1300 1303 22 10 60 19 85 19s63-9 85-19z"/><path d="m492 1189c-45-13-108-80-121-126-6-22-11-142-11-284 0-212 3-256 20-323 29-113 73-190 160-276 86-87 163-131 276-160 75-20 117-20 1744-20s1669 0 1744 20c114 29 190 73 277 160 87 88 139 179 164 293 13 60 16 121 13 334l-3 260-27 40c-41 62-90 88-168 88s-127-26-168-88l-27-40-5-267-5-267-27-40c-15-22-44-51-65-64l-38-24h-1665-1665l-38 24c-21 13-50 42-65 64l-27 40-5 266c-5 258-6 267-29 304-47 76-151 113-239 86z"/></g></svg>