<svg height="512pt" preserveAspectRatio="xMidYMid meet" viewBox="0 0 512 512" width="512pt" xmlns="http://www.w3.org/2000/svg"><g transform="matrix(.1 0 0 -.1 0 512)"><path d="m1890 4861c-390-117-722-312-1004-589-195-192-345-396-465-630l-62-122h505 506l4 23c112 539 322 1003 573 1267 47 50 81 90 77 89-5 0-65-17-134-38z"/><path d="m3174 4810c250-263 459-727 572-1267l4-23h505 505l-51 101c-188 376-477 704-821 932-211 141-435 245-671 313-65 19-121 34-124 34s33-41 81-90z"/><path d="m2440 4777c-278-94-551-520-700-1088-22-85-40-157-40-161 0-5 387-8 860-8s860 3 860 8c0 4-18 76-40 161-173 659-508 1112-824 1111-28 0-80-11-116-23z"/><path d="m247 3193c-10-16-56-241-69-333-7-54-13-185-12-305 0-223 14-356 57-535l23-95 538-3 538-2-6 32c-41 235-41 981 0 1216l6 32h-535c-295 0-538-3-540-7z"/><path d="m1631 3098c-19-169-31-373-31-538s12-369 31-537l12-103h917 917l12 103c40 355 40 719 0 1075l-12 102h-917-917z"/><path d="m3804 3168c41-233 41-943 0-1211l-6-37 538 2 538 3 23 95c44 181 57 311 57 540s-13 359-57 540l-23 95-538 3-538 2z"/><path d="m411 1499c114-228 254-425 433-608 139-142 235-222 391-326 202-135 430-241 653-306 59-16 116-33 127-36s-18 34-67 86c-254 266-454 709-574 1269l-4 22h-505-505z"/><path d="m1700 1593c0-5 18-77 40-162 172-656 507-1111 820-1111 323 0 659 470 834 1167 14 56 26 104 26 107s-387 6-860 6-860-3-860-7z"/><path d="m3746 1578c-120-558-321-1003-572-1268-48-49-84-90-81-90s60 16 126 35c281 81 552 217 801 404 93 69 300 270 387 373 93 112 221 307 292 447l62 121h-505-506z"/></g></svg>